<?xml version="1.0" encoding="UTF-8" standalone="no"?>
<!DOCTYPE svg PUBLIC "-//W3C//DTD SVG 1.1//EN"
 "http://www.w3.org/Graphics/SVG/1.1/DTD/svg11.dtd">
<!-- Generated by graphviz version 2.43.0 (0)
 -->
<!-- Title: %3 Pages: 1 -->
<svg width="1139pt" height="238pt"
 viewBox="0.00 0.00 1138.50 237.74" xmlns="http://www.w3.org/2000/svg" xmlns:xlink="http://www.w3.org/1999/xlink">
<g id="graph0" class="graph" transform="scale(1 1) rotate(0) translate(36 201.74)">
<title>%3</title>
<polygon fill="dimgray" stroke="transparent" points="-36,36 -36,-201.74 1102.5,-201.74 1102.5,36 -36,36"/>
<text text-anchor="middle" x="533.25" y="-150.54" font-family="Helvetica,sans-Serif" font-size="14.00">Sweep&#39;s Plan &amp; Progress</text>
<!-- start -->
<g id="node1" class="node">
<title>start</title>
</g>
<!-- 8cbadf12&#45;8d55&#45;46c7&#45;a605&#45;f03bd7b30774 -->
<g id="node3" class="node">
<title>8cbadf12&#45;8d55&#45;46c7&#45;a605&#45;f03bd7b30774</title>
<ellipse fill="yellow" stroke="black" cx="204.5" cy="-99.87" rx="73.58" ry="26.74"/>
<text text-anchor="middle" x="204.5" y="-103.67" font-family="Helvetica,sans-Serif" font-size="14.00">⋯ Modify</text>
<text text-anchor="middle" x="204.5" y="-88.67" font-family="Helvetica,sans-Serif" font-size="14.00">README.md</text>
</g>
<!-- start&#45;&gt;8cbadf12&#45;8d55&#45;46c7&#45;a605&#45;f03bd7b30774 -->
<g id="edge6" class="edge">
<title>start&#45;&gt;8cbadf12&#45;8d55&#45;46c7&#45;a605&#45;f03bd7b30774</title>
<path fill="none" stroke="black" d="M79.3,-99.87C83.14,-99.87 100.24,-99.87 120.62,-99.87"/>
<polygon fill="black" stroke="black" points="120.85,-103.37 130.85,-99.87 120.85,-96.37 120.85,-103.37"/>
<text text-anchor="middle" x="104.98" y="-106.67" font-family="Helvetica,sans-Serif" font-size="14.00">Start</text>
</g>
<!-- end -->
<g id="node2" class="node">
<title>end</title>
</g>
<!-- 500f8165&#45;7263&#45;45d1&#45;a9aa&#45;4215be407a75 -->
<g id="node4" class="node">
<title>500f8165&#45;7263&#45;45d1&#45;a9aa&#45;4215be407a75</title>
<ellipse fill="white" stroke="black" cx="498.5" cy="-99.87" rx="126.64" ry="26.74"/>
<text text-anchor="middle" x="498.5" y="-103.67" font-family="Helvetica,sans-Serif" font-size="14.00">▶ Modify</text>
<text text-anchor="middle" x="498.5" y="-88.67" font-family="Helvetica,sans-Serif" font-size="14.00">DEVELOPER_GUIDE.md</text>
</g>
<!-- 8cbadf12&#45;8d55&#45;46c7&#45;a605&#45;f03bd7b30774&#45;&gt;500f8165&#45;7263&#45;45d1&#45;a9aa&#45;4215be407a75 -->
<g id="edge2" class="edge">
<title>8cbadf12&#45;8d55&#45;46c7&#45;a605&#45;f03bd7b30774&#45;&gt;500f8165&#45;7263&#45;45d1&#45;a9aa&#45;4215be407a75</title>
<path fill="none" stroke="black" d="M278.29,-99.87C306,-99.87 333.7,-99.87 361.41,-99.87"/>
<polygon fill="black" stroke="black" points="361.62,-103.37 371.62,-99.87 361.62,-96.37 361.62,-103.37"/>
</g>
<!-- 55771e75&#45;a079&#45;423c&#45;9d2b&#45;afe964120900 -->
<g id="node6" class="node">
<title>55771e75&#45;a079&#45;423c&#45;9d2b&#45;afe964120900</title>
<polygon fill="white" stroke="black" points="295,-36 0,-36 0,0 295,0 295,-36"/>
<text text-anchor="middle" x="147.5" y="-14.3" font-family="Helvetica,sans-Serif" font-size="14.00">▶ Run GitHub Actions for `README.md`</text>
</g>
<!-- 8cbadf12&#45;8d55&#45;46c7&#45;a605&#45;f03bd7b30774&#45;&gt;55771e75&#45;a079&#45;423c&#45;9d2b&#45;afe964120900 -->
<g id="edge1" class="edge">
<title>8cbadf12&#45;8d55&#45;46c7&#45;a605&#45;f03bd7b30774&#45;&gt;55771e75&#45;a079&#45;423c&#45;9d2b&#45;afe964120900</title>
<path fill="none" stroke="black" stroke-dasharray="5,2" d="M186.46,-73.6C179.77,-64.22 172.19,-53.59 165.5,-44.22"/>
<polygon fill="black" stroke="black" points="168.32,-42.14 159.66,-36.04 162.62,-46.21 168.32,-42.14"/>
</g>
<!-- 01afdca9&#45;c024&#45;438d&#45;8e09&#45;80301e8aa5f7 -->
<g id="node5" class="node">
<title>01afdca9&#45;c024&#45;438d&#45;8e09&#45;80301e8aa5f7</title>
<ellipse fill="white" stroke="black" cx="833.5" cy="-99.87" rx="122.16" ry="26.74"/>
<text text-anchor="middle" x="833.5" y="-103.67" font-family="Helvetica,sans-Serif" font-size="14.00">▶ Modify</text>
<text text-anchor="middle" x="833.5" y="-88.67" font-family="Helvetica,sans-Serif" font-size="14.00">__tests__/setupTests.ts</text>
</g>
<!-- 500f8165&#45;7263&#45;45d1&#45;a9aa&#45;4215be407a75&#45;&gt;01afdca9&#45;c024&#45;438d&#45;8e09&#45;80301e8aa5f7 -->
<g id="edge4" class="edge">
<title>500f8165&#45;7263&#45;45d1&#45;a9aa&#45;4215be407a75&#45;&gt;01afdca9&#45;c024&#45;438d&#45;8e09&#45;80301e8aa5f7</title>
<path fill="none" stroke="black" d="M625.11,-99.87C650.38,-99.87 675.65,-99.87 700.92,-99.87"/>
<polygon fill="black" stroke="black" points="700.99,-103.37 710.99,-99.87 700.99,-96.37 700.99,-103.37"/>
</g>
<!-- 2469e330&#45;2712&#45;46a6&#45;8798&#45;d897a2767913 -->
<g id="node7" class="node">
<title>2469e330&#45;2712&#45;46a6&#45;8798&#45;d897a2767913</title>
<polygon fill="white" stroke="black" points="684,-36 313,-36 313,0 684,0 684,-36"/>
<text text-anchor="middle" x="498.5" y="-14.3" font-family="Helvetica,sans-Serif" font-size="14.00">▶ Run GitHub Actions for `DEVELOPER_GUIDE.md`</text>
</g>
<!-- 500f8165&#45;7263&#45;45d1&#45;a9aa&#45;4215be407a75&#45;&gt;2469e330&#45;2712&#45;46a6&#45;8798&#45;d897a2767913 -->
<g id="edge3" class="edge">
<title>500f8165&#45;7263&#45;45d1&#45;a9aa&#45;4215be407a75&#45;&gt;2469e330&#45;2712&#45;46a6&#45;8798&#45;d897a2767913</title>
<path fill="none" stroke="black" stroke-dasharray="5,2" d="M498.5,-72.72C498.5,-64.27 498.5,-54.89 498.5,-46.36"/>
<polygon fill="black" stroke="black" points="502,-46.15 498.5,-36.15 495,-46.15 502,-46.15"/>
</g>
<!-- 01afdca9&#45;c024&#45;438d&#45;8e09&#45;80301e8aa5f7&#45;&gt;end -->
<g id="edge7" class="edge">
<title>01afdca9&#45;c024&#45;438d&#45;8e09&#45;80301e8aa5f7&#45;&gt;end</title>
<path fill="none" stroke="black" d="M956.05,-99.87C975.23,-99.87 992.13,-99.87 1002.55,-99.87"/>
<polygon fill="black" stroke="black" points="1002.84,-103.37 1012.84,-99.87 1002.84,-96.37 1002.84,-103.37"/>
<text text-anchor="middle" x="984.41" y="-106.67" font-family="Helvetica,sans-Serif" font-size="14.00">Finish</text>
</g>
<!-- 5b1a6cc7&#45;98ec&#45;4dda&#45;8a39&#45;bee12fb83e55 -->
<g id="node8" class="node">
<title>5b1a6cc7&#45;98ec&#45;4dda&#45;8a39&#45;bee12fb83e55</title>
<polygon fill="white" stroke="black" points="1066.5,-36 702.5,-36 702.5,0 1066.5,0 1066.5,-36"/>
<text text-anchor="middle" x="884.5" y="-14.3" font-family="Helvetica,sans-Serif" font-size="14.00">▶ Run GitHub Actions for `__tests__/setupTests.ts`</text>
</g>
<!-- 01afdca9&#45;c024&#45;438d&#45;8e09&#45;80301e8aa5f7&#45;&gt;5b1a6cc7&#45;98ec&#45;4dda&#45;8a39&#45;bee12fb83e55 -->
<g id="edge5" class="edge">
<title>01afdca9&#45;c024&#45;438d&#45;8e09&#45;80301e8aa5f7&#45;&gt;5b1a6cc7&#45;98ec&#45;4dda&#45;8a39&#45;bee12fb83e55</title>
<path fill="none" stroke="black" stroke-dasharray="5,2" d="M849.92,-73.16C855.68,-64.13 862.16,-53.98 867.94,-44.94"/>
<polygon fill="black" stroke="black" points="871,-46.65 873.43,-36.34 865.1,-42.88 871,-46.65"/>
</g>
</g>
</svg>
