<?xml version="1.0" encoding="UTF-8" standalone="no"?>
<!DOCTYPE svg PUBLIC "-//W3C//DTD SVG 1.1//EN"
 "http://www.w3.org/Graphics/SVG/1.1/DTD/svg11.dtd">
<!-- Generated by graphviz version 2.43.0 (0)
 -->
<!-- Title: %3 Pages: 1 -->
<svg width="1142pt" height="238pt"
 viewBox="0.00 0.00 1142.00 237.74" xmlns="http://www.w3.org/2000/svg" xmlns:xlink="http://www.w3.org/1999/xlink">
<g id="graph0" class="graph" transform="scale(1 1) rotate(0) translate(36 201.74)">
<title>%3</title>
<polygon fill="dimgray" stroke="transparent" points="-36,36 -36,-201.74 1106,-201.74 1106,36 -36,36"/>
<text text-anchor="middle" x="535" y="-150.54" font-family="Helvetica,sans-Serif" font-size="14.00">Sweep&#39;s Plan &amp; Progress</text>
<!-- start -->
<g id="node1" class="node">
<title>start</title>
</g>
<!-- 8cbadf12&#45;8d55&#45;46c7&#45;a605&#45;f03bd7b30774 -->
<g id="node3" class="node">
<title>8cbadf12&#45;8d55&#45;46c7&#45;a605&#45;f03bd7b30774</title>
<ellipse fill="#0ee832" stroke="black" cx="206" cy="-99.87" rx="73.58" ry="26.74"/>
<text text-anchor="middle" x="206" y="-103.67" font-family="Helvetica,sans-Serif" font-size="14.00">✓ Modify</text>
<text text-anchor="middle" x="206" y="-88.67" font-family="Helvetica,sans-Serif" font-size="14.00">README.md</text>
</g>
<!-- start&#45;&gt;8cbadf12&#45;8d55&#45;46c7&#45;a605&#45;f03bd7b30774 -->
<g id="edge6" class="edge">
<title>start&#45;&gt;8cbadf12&#45;8d55&#45;46c7&#45;a605&#45;f03bd7b30774</title>
<path fill="none" stroke="black" d="M80.8,-99.87C84.64,-99.87 101.74,-99.87 122.12,-99.87"/>
<polygon fill="black" stroke="black" points="122.35,-103.37 132.35,-99.87 122.35,-96.37 122.35,-103.37"/>
<text text-anchor="middle" x="106.48" y="-106.67" font-family="Helvetica,sans-Serif" font-size="14.00">Start</text>
</g>
<!-- end -->
<g id="node2" class="node">
<title>end</title>
</g>
<!-- 500f8165&#45;7263&#45;45d1&#45;a9aa&#45;4215be407a75 -->
<g id="node4" class="node">
<title>500f8165&#45;7263&#45;45d1&#45;a9aa&#45;4215be407a75</title>
<ellipse fill="#0ee832" stroke="black" cx="501" cy="-99.87" rx="126.64" ry="26.74"/>
<text text-anchor="middle" x="501" y="-103.67" font-family="Helvetica,sans-Serif" font-size="14.00">✓ Modify</text>
<text text-anchor="middle" x="501" y="-88.67" font-family="Helvetica,sans-Serif" font-size="14.00">DEVELOPER_GUIDE.md</text>
</g>
<!-- 8cbadf12&#45;8d55&#45;46c7&#45;a605&#45;f03bd7b30774&#45;&gt;500f8165&#45;7263&#45;45d1&#45;a9aa&#45;4215be407a75 -->
<g id="edge2" class="edge">
<title>8cbadf12&#45;8d55&#45;46c7&#45;a605&#45;f03bd7b30774&#45;&gt;500f8165&#45;7263&#45;45d1&#45;a9aa&#45;4215be407a75</title>
<path fill="none" stroke="black" d="M279.75,-99.87C307.85,-99.87 335.94,-99.87 364.04,-99.87"/>
<polygon fill="black" stroke="black" points="364.39,-103.37 374.39,-99.87 364.39,-96.37 364.39,-103.37"/>
</g>
<!-- 55771e75&#45;a079&#45;423c&#45;9d2b&#45;afe964120900 -->
<g id="node6" class="node">
<title>55771e75&#45;a079&#45;423c&#45;9d2b&#45;afe964120900</title>
<polygon fill="#0ee832" stroke="black" points="296,-36 0,-36 0,0 296,0 296,-36"/>
<text text-anchor="middle" x="148" y="-14.3" font-family="Helvetica,sans-Serif" font-size="14.00">✓ Run GitHub Actions for `README.md`</text>
</g>
<!-- 8cbadf12&#45;8d55&#45;46c7&#45;a605&#45;f03bd7b30774&#45;&gt;55771e75&#45;a079&#45;423c&#45;9d2b&#45;afe964120900 -->
<g id="edge1" class="edge">
<title>8cbadf12&#45;8d55&#45;46c7&#45;a605&#45;f03bd7b30774&#45;&gt;55771e75&#45;a079&#45;423c&#45;9d2b&#45;afe964120900</title>
<path fill="none" stroke="black" stroke-dasharray="5,2" d="M187.65,-73.6C180.84,-64.22 173.12,-53.59 166.31,-44.22"/>
<polygon fill="black" stroke="black" points="169.08,-42.07 160.37,-36.04 163.42,-46.18 169.08,-42.07"/>
</g>
<!-- 01afdca9&#45;c024&#45;438d&#45;8e09&#45;80301e8aa5f7 -->
<g id="node5" class="node">
<title>01afdca9&#45;c024&#45;438d&#45;8e09&#45;80301e8aa5f7</title>
<ellipse fill="white" stroke="black" cx="837" cy="-99.87" rx="122.16" ry="26.74"/>
<text text-anchor="middle" x="837" y="-103.67" font-family="Helvetica,sans-Serif" font-size="14.00">▶ Modify</text>
<text text-anchor="middle" x="837" y="-88.67" font-family="Helvetica,sans-Serif" font-size="14.00">__tests__/setupTests.ts</text>
</g>
<!-- 500f8165&#45;7263&#45;45d1&#45;a9aa&#45;4215be407a75&#45;&gt;01afdca9&#45;c024&#45;438d&#45;8e09&#45;80301e8aa5f7 -->
<g id="edge4" class="edge">
<title>500f8165&#45;7263&#45;45d1&#45;a9aa&#45;4215be407a75&#45;&gt;01afdca9&#45;c024&#45;438d&#45;8e09&#45;80301e8aa5f7</title>
<path fill="none" stroke="black" d="M627.66,-99.87C653.16,-99.87 678.67,-99.87 704.18,-99.87"/>
<polygon fill="black" stroke="black" points="704.34,-103.37 714.34,-99.87 704.34,-96.37 704.34,-103.37"/>
</g>
<!-- 2469e330&#45;2712&#45;46a6&#45;8798&#45;d897a2767913 -->
<g id="node7" class="node">
<title>2469e330&#45;2712&#45;46a6&#45;8798&#45;d897a2767913</title>
<polygon fill="yellow" stroke="black" points="688,-36 314,-36 314,0 688,0 688,-36"/>
<text text-anchor="middle" x="501" y="-14.3" font-family="Helvetica,sans-Serif" font-size="14.00">⋯ Run GitHub Actions for `DEVELOPER_GUIDE.md`</text>
</g>
<!-- 500f8165&#45;7263&#45;45d1&#45;a9aa&#45;4215be407a75&#45;&gt;2469e330&#45;2712&#45;46a6&#45;8798&#45;d897a2767913 -->
<g id="edge3" class="edge">
<title>500f8165&#45;7263&#45;45d1&#45;a9aa&#45;4215be407a75&#45;&gt;2469e330&#45;2712&#45;46a6&#45;8798&#45;d897a2767913</title>
<path fill="none" stroke="black" stroke-dasharray="5,2" d="M501,-72.72C501,-64.27 501,-54.89 501,-46.36"/>
<polygon fill="black" stroke="black" points="504.5,-46.15 501,-36.15 497.5,-46.15 504.5,-46.15"/>
</g>
<!-- 01afdca9&#45;c024&#45;438d&#45;8e09&#45;80301e8aa5f7&#45;&gt;end -->
<g id="edge7" class="edge">
<title>01afdca9&#45;c024&#45;438d&#45;8e09&#45;80301e8aa5f7&#45;&gt;end</title>
<path fill="none" stroke="black" d="M959.55,-99.87C978.73,-99.87 995.63,-99.87 1006.05,-99.87"/>
<polygon fill="black" stroke="black" points="1006.34,-103.37 1016.34,-99.87 1006.34,-96.37 1006.34,-103.37"/>
<text text-anchor="middle" x="987.91" y="-106.67" font-family="Helvetica,sans-Serif" font-size="14.00">Finish</text>
</g>
<!-- 5b1a6cc7&#45;98ec&#45;4dda&#45;8a39&#45;bee12fb83e55 -->
<g id="node8" class="node">
<title>5b1a6cc7&#45;98ec&#45;4dda&#45;8a39&#45;bee12fb83e55</title>
<polygon fill="white" stroke="black" points="1070,-36 706,-36 706,0 1070,0 1070,-36"/>
<text text-anchor="middle" x="888" y="-14.3" font-family="Helvetica,sans-Serif" font-size="14.00">▶ Run GitHub Actions for `__tests__/setupTests.ts`</text>
</g>
<!-- 01afdca9&#45;c024&#45;438d&#45;8e09&#45;80301e8aa5f7&#45;&gt;5b1a6cc7&#45;98ec&#45;4dda&#45;8a39&#45;bee12fb83e55 -->
<g id="edge5" class="edge">
<title>01afdca9&#45;c024&#45;438d&#45;8e09&#45;80301e8aa5f7&#45;&gt;5b1a6cc7&#45;98ec&#45;4dda&#45;8a39&#45;bee12fb83e55</title>
<path fill="none" stroke="black" stroke-dasharray="5,2" d="M853.42,-73.16C859.18,-64.13 865.66,-53.98 871.44,-44.94"/>
<polygon fill="black" stroke="black" points="874.5,-46.65 876.93,-36.34 868.6,-42.88 874.5,-46.65"/>
</g>
</g>
</svg>
