<?xml version="1.0" encoding="UTF-8" standalone="no"?>
<!DOCTYPE svg PUBLIC "-//W3C//DTD SVG 1.1//EN"
 "http://www.w3.org/Graphics/SVG/1.1/DTD/svg11.dtd">
<!-- Generated by graphviz version 2.43.0 (0)
 -->
<!-- Title: %3 Pages: 1 -->
<svg width="1143pt" height="238pt"
 viewBox="0.00 0.00 1142.50 237.74" xmlns="http://www.w3.org/2000/svg" xmlns:xlink="http://www.w3.org/1999/xlink">
<g id="graph0" class="graph" transform="scale(1 1) rotate(0) translate(36 201.74)">
<title>%3</title>
<polygon fill="dimgray" stroke="transparent" points="-36,36 -36,-201.74 1106.5,-201.74 1106.5,36 -36,36"/>
<text text-anchor="middle" x="535.25" y="-150.54" font-family="Helvetica,sans-Serif" font-size="14.00">Sweep&#39;s Plan &amp; Progress</text>
<!-- start -->
<g id="node1" class="node">
<title>start</title>
</g>
<!-- 8cbadf12&#45;8d55&#45;46c7&#45;a605&#45;f03bd7b30774 -->
<g id="node3" class="node">
<title>8cbadf12&#45;8d55&#45;46c7&#45;a605&#45;f03bd7b30774</title>
<ellipse fill="#0ee832" stroke="black" cx="207.5" cy="-99.87" rx="73.58" ry="26.74"/>
<text text-anchor="middle" x="207.5" y="-103.67" font-family="Helvetica,sans-Serif" font-size="14.00">✓ Modify</text>
<text text-anchor="middle" x="207.5" y="-88.67" font-family="Helvetica,sans-Serif" font-size="14.00">README.md</text>
</g>
<!-- start&#45;&gt;8cbadf12&#45;8d55&#45;46c7&#45;a605&#45;f03bd7b30774 -->
<g id="edge6" class="edge">
<title>start&#45;&gt;8cbadf12&#45;8d55&#45;46c7&#45;a605&#45;f03bd7b30774</title>
<path fill="none" stroke="black" d="M82.3,-99.87C86.14,-99.87 103.24,-99.87 123.62,-99.87"/>
<polygon fill="black" stroke="black" points="123.85,-103.37 133.85,-99.87 123.85,-96.37 123.85,-103.37"/>
<text text-anchor="middle" x="107.98" y="-106.67" font-family="Helvetica,sans-Serif" font-size="14.00">Start</text>
</g>
<!-- end -->
<g id="node2" class="node">
<title>end</title>
</g>
<!-- 500f8165&#45;7263&#45;45d1&#45;a9aa&#45;4215be407a75 -->
<g id="node4" class="node">
<title>500f8165&#45;7263&#45;45d1&#45;a9aa&#45;4215be407a75</title>
<ellipse fill="white" stroke="black" cx="502.5" cy="-99.87" rx="126.64" ry="26.74"/>
<text text-anchor="middle" x="502.5" y="-103.67" font-family="Helvetica,sans-Serif" font-size="14.00">▶ Modify</text>
<text text-anchor="middle" x="502.5" y="-88.67" font-family="Helvetica,sans-Serif" font-size="14.00">DEVELOPER_GUIDE.md</text>
</g>
<!-- 8cbadf12&#45;8d55&#45;46c7&#45;a605&#45;f03bd7b30774&#45;&gt;500f8165&#45;7263&#45;45d1&#45;a9aa&#45;4215be407a75 -->
<g id="edge2" class="edge">
<title>8cbadf12&#45;8d55&#45;46c7&#45;a605&#45;f03bd7b30774&#45;&gt;500f8165&#45;7263&#45;45d1&#45;a9aa&#45;4215be407a75</title>
<path fill="none" stroke="black" d="M281.25,-99.87C309.35,-99.87 337.44,-99.87 365.54,-99.87"/>
<polygon fill="black" stroke="black" points="365.89,-103.37 375.89,-99.87 365.89,-96.37 365.89,-103.37"/>
</g>
<!-- 55771e75&#45;a079&#45;423c&#45;9d2b&#45;afe964120900 -->
<g id="node6" class="node">
<title>55771e75&#45;a079&#45;423c&#45;9d2b&#45;afe964120900</title>
<polygon fill="yellow" stroke="black" points="299,-36 0,-36 0,0 299,0 299,-36"/>
<text text-anchor="middle" x="149.5" y="-14.3" font-family="Helvetica,sans-Serif" font-size="14.00">⋯ Run GitHub Actions for `README.md`</text>
</g>
<!-- 8cbadf12&#45;8d55&#45;46c7&#45;a605&#45;f03bd7b30774&#45;&gt;55771e75&#45;a079&#45;423c&#45;9d2b&#45;afe964120900 -->
<g id="edge1" class="edge">
<title>8cbadf12&#45;8d55&#45;46c7&#45;a605&#45;f03bd7b30774&#45;&gt;55771e75&#45;a079&#45;423c&#45;9d2b&#45;afe964120900</title>
<path fill="none" stroke="black" stroke-dasharray="5,2" d="M189.15,-73.6C182.34,-64.22 174.62,-53.59 167.81,-44.22"/>
<polygon fill="black" stroke="black" points="170.58,-42.07 161.87,-36.04 164.92,-46.18 170.58,-42.07"/>
</g>
<!-- 01afdca9&#45;c024&#45;438d&#45;8e09&#45;80301e8aa5f7 -->
<g id="node5" class="node">
<title>01afdca9&#45;c024&#45;438d&#45;8e09&#45;80301e8aa5f7</title>
<ellipse fill="white" stroke="black" cx="837.5" cy="-99.87" rx="122.16" ry="26.74"/>
<text text-anchor="middle" x="837.5" y="-103.67" font-family="Helvetica,sans-Serif" font-size="14.00">▶ Modify</text>
<text text-anchor="middle" x="837.5" y="-88.67" font-family="Helvetica,sans-Serif" font-size="14.00">__tests__/setupTests.ts</text>
</g>
<!-- 500f8165&#45;7263&#45;45d1&#45;a9aa&#45;4215be407a75&#45;&gt;01afdca9&#45;c024&#45;438d&#45;8e09&#45;80301e8aa5f7 -->
<g id="edge4" class="edge">
<title>500f8165&#45;7263&#45;45d1&#45;a9aa&#45;4215be407a75&#45;&gt;01afdca9&#45;c024&#45;438d&#45;8e09&#45;80301e8aa5f7</title>
<path fill="none" stroke="black" d="M629.11,-99.87C654.38,-99.87 679.65,-99.87 704.92,-99.87"/>
<polygon fill="black" stroke="black" points="704.99,-103.37 714.99,-99.87 704.99,-96.37 704.99,-103.37"/>
</g>
<!-- 2469e330&#45;2712&#45;46a6&#45;8798&#45;d897a2767913 -->
<g id="node7" class="node">
<title>2469e330&#45;2712&#45;46a6&#45;8798&#45;d897a2767913</title>
<polygon fill="white" stroke="black" points="688,-36 317,-36 317,0 688,0 688,-36"/>
<text text-anchor="middle" x="502.5" y="-14.3" font-family="Helvetica,sans-Serif" font-size="14.00">▶ Run GitHub Actions for `DEVELOPER_GUIDE.md`</text>
</g>
<!-- 500f8165&#45;7263&#45;45d1&#45;a9aa&#45;4215be407a75&#45;&gt;2469e330&#45;2712&#45;46a6&#45;8798&#45;d897a2767913 -->
<g id="edge3" class="edge">
<title>500f8165&#45;7263&#45;45d1&#45;a9aa&#45;4215be407a75&#45;&gt;2469e330&#45;2712&#45;46a6&#45;8798&#45;d897a2767913</title>
<path fill="none" stroke="black" stroke-dasharray="5,2" d="M502.5,-72.72C502.5,-64.27 502.5,-54.89 502.5,-46.36"/>
<polygon fill="black" stroke="black" points="506,-46.15 502.5,-36.15 499,-46.15 506,-46.15"/>
</g>
<!-- 01afdca9&#45;c024&#45;438d&#45;8e09&#45;80301e8aa5f7&#45;&gt;end -->
<g id="edge7" class="edge">
<title>01afdca9&#45;c024&#45;438d&#45;8e09&#45;80301e8aa5f7&#45;&gt;end</title>
<path fill="none" stroke="black" d="M960.05,-99.87C979.23,-99.87 996.13,-99.87 1006.55,-99.87"/>
<polygon fill="black" stroke="black" points="1006.84,-103.37 1016.84,-99.87 1006.84,-96.37 1006.84,-103.37"/>
<text text-anchor="middle" x="988.41" y="-106.67" font-family="Helvetica,sans-Serif" font-size="14.00">Finish</text>
</g>
<!-- 5b1a6cc7&#45;98ec&#45;4dda&#45;8a39&#45;bee12fb83e55 -->
<g id="node8" class="node">
<title>5b1a6cc7&#45;98ec&#45;4dda&#45;8a39&#45;bee12fb83e55</title>
<polygon fill="white" stroke="black" points="1070.5,-36 706.5,-36 706.5,0 1070.5,0 1070.5,-36"/>
<text text-anchor="middle" x="888.5" y="-14.3" font-family="Helvetica,sans-Serif" font-size="14.00">▶ Run GitHub Actions for `__tests__/setupTests.ts`</text>
</g>
<!-- 01afdca9&#45;c024&#45;438d&#45;8e09&#45;80301e8aa5f7&#45;&gt;5b1a6cc7&#45;98ec&#45;4dda&#45;8a39&#45;bee12fb83e55 -->
<g id="edge5" class="edge">
<title>01afdca9&#45;c024&#45;438d&#45;8e09&#45;80301e8aa5f7&#45;&gt;5b1a6cc7&#45;98ec&#45;4dda&#45;8a39&#45;bee12fb83e55</title>
<path fill="none" stroke="black" stroke-dasharray="5,2" d="M853.92,-73.16C859.68,-64.13 866.16,-53.98 871.94,-44.94"/>
<polygon fill="black" stroke="black" points="875,-46.65 877.43,-36.34 869.1,-42.88 875,-46.65"/>
</g>
</g>
</svg>
